# xmcd
#
# Track frame offsets:
# 150
# 13442
# 28544
# 37990
# 54318
# 66355
# 76163
# 88368
# 106284
# 118795
# 131334
# 140529
# 158446
# 167613
# 188594
# 202554
# 216709
# 233567
# 241842
# 254200
# 267812
# 284948
# 297150
#
# Disc length: 4126 seconds
#
#
# Revision: 0
# Processed by: cddbd v1.5.2PL0 Copyright (c) Steve Scherf et al.
# Submitted via: FreeRIP 2.945 
#
DISCID=4d101c17
DTITLE=Herriot-J1992 - Every-Living-Thing04
DYEAR=1992
DGENRE=Jungle
TTITLE0=ELT 0401
TTITLE1=ELT 0402
TTITLE2=ELT 0403
TTITLE3=ELT 0404
TTITLE4=ELT 0405
TTITLE5=ELT 0406
TTITLE6=ELT 0407
TTITLE7=ELT 0408
TTITLE8=ELT 0409
TTITLE9=ELT 0410
TTITLE10=ELT 0411
TTITLE11=ELT 0412
TTITLE12=ELT 0413
TTITLE13=ELT 0414
TTITLE14=ELT 0415
TTITLE15=ELT 0416
TTITLE16=ELT 0417
TTITLE17=ELT 0418
TTITLE18=ELT 0419
TTITLE19=ELT 0420
TTITLE20=ELT 0421
TTITLE21=ELT 0422
TTITLE22=ELT 0423
EXTD=Every Living Thing by James Herriot 10 CDs\nread by Christopher Timothy BBC Audiobooks\njungle country
EXTT0=
EXTT1=
EXTT2=
EXTT3=
EXTT4=
EXTT5=
EXTT6=
EXTT7=
EXTT8=
EXTT9=
EXTT10=
EXTT11=
EXTT12=
EXTT13=
EXTT14=
EXTT15=
EXTT16=
EXTT17=
EXTT18=
EXTT19=
EXTT20=
EXTT21=
EXTT22=
PLAYORDER=
